<?xml version="1.0" encoding="iso-8859-1"?>
<!-- Generator: Adobe Illustrator 19.0.0, SVG Export Plug-In . SVG Version: 6.00 Build 0)  -->
<svg version="1.1" id="Layer_1" xmlns="http://www.w3.org/2000/svg" xmlns:xlink="http://www.w3.org/1999/xlink" x="0px" y="0px"
	 viewBox="0 0 300.725 300.725" style="enable-background:new 0 0 300.725 300.725;" xml:space="preserve">
<g>
	<g id="search-document-find-magnify_1_">
		<path style="fill:#3ADDBE;" d="M98.676,173.857c0,12.179,4.262,23.372,11.334,32.215l8.134,8.134
			c8.843,7.076,20.036,11.338,32.22,11.338c28.498,0,51.687-23.189,51.687-51.687s-23.189-51.687-51.687-51.687
			S98.676,145.358,98.676,173.857z M192.652,173.857c0,23.316-18.969,42.29-42.29,42.29s-42.29-18.974-42.29-42.29
			s18.969-42.29,42.29-42.29S192.652,150.541,192.652,173.857z"/>
		<polygon style="fill:#F78B28;" points="183.255,98.676 223.599,98.676 183.255,58.331 		"/>
		<path style="fill:#F8CF26;" d="M173.857,103.374V51.687H75.181h-0.606H56.386c-7.772,0-14.097,6.325-14.097,14.097V281.93
			c0,7.772,6.325,14.096,14.097,14.096h159.76c7.772,0,14.096-6.325,14.096-14.096V108.073h-51.687
			C175.957,108.073,173.857,105.968,173.857,103.374z M61.085,79.88h93.977v9.398H61.085V79.88z M112.772,98.676v9.398H89.278
			v-9.398H112.772z M61.085,98.676H79.88v9.398H61.085V98.676z M61.085,117.471h23.494v9.398H61.085V117.471z M159.76,263.135
			h-56.386v-9.398h56.386V263.135z M216.146,263.135h-46.988v-9.398h46.988V263.135z M216.146,244.339h-32.892v-9.398h32.892
			V244.339z M216.146,225.544H202.05v-9.398h14.097v9.398H216.146z M211.448,173.857c0,33.681-27.404,61.085-61.085,61.085
			c-11.705,0-22.611-3.369-31.914-9.097l-43.605,43.6c-2.749,2.749-6.358,4.121-9.966,4.121c-3.609,0-7.217-1.372-9.966-4.121
			c-2.66-2.655-4.13-6.198-4.13-9.966c0-3.764,1.466-7.307,4.13-9.966l43.568-43.568c-5.794-9.341-9.2-20.313-9.2-32.088
			c0-33.681,27.404-61.085,61.085-61.085S211.448,140.176,211.448,173.857z"/>
		<path style="fill:#F8CF26;" d="M216.146,61.085V32.892H75.181c-6.127,0-11.352,3.928-13.293,9.398h12.687h0.606h103.374
			c0.108,0,0.202,0.052,0.305,0.061c0.409,0.028,0.804,0.103,1.189,0.235c0.155,0.052,0.305,0.094,0.451,0.16
			c0.498,0.23,0.973,0.517,1.372,0.916l56.386,56.386c0.404,0.404,0.691,0.879,0.921,1.377c0.066,0.141,0.103,0.287,0.155,0.437
			c0.136,0.395,0.216,0.799,0.244,1.217c0.009,0.108,0.061,0.197,0.061,0.296v173.053c5.469-1.941,9.398-7.166,9.398-13.293V65.784
			h-28.193C218.247,65.784,216.146,63.679,216.146,61.085z"/>
		<polygon style="fill:#F78B28;" points="225.544,56.386 242.394,56.386 225.544,39.536 		"/>
		<path style="fill:#F8CF26;" d="M93.977,14.097c-6.127,0-11.352,3.928-13.293,9.398h140.162c0.108,0,0.202,0.052,0.305,0.061
			c0.409,0.028,0.804,0.103,1.189,0.235c0.155,0.052,0.305,0.094,0.451,0.16c0.498,0.23,0.973,0.517,1.372,0.916l32.892,32.892
			c0.404,0.404,0.691,0.879,0.921,1.377c0.066,0.141,0.103,0.287,0.155,0.437c0.136,0.395,0.216,0.799,0.244,1.217
			c0.009,0.108,0.061,0.197,0.061,0.296v196.548c5.469-1.941,9.398-7.166,9.398-13.293V28.193c0-7.772-6.325-14.097-14.096-14.097
			L93.977,14.097L93.977,14.097z"/>
		<circle style="fill:#FFFFFF;" cx="150.363" cy="173.857" r="32.892"/>
		<path style="fill:#3ADDBE;" d="M104.093,213.623l-42.534,42.534c-0.883,0.888-1.377,2.067-1.377,3.322
			c0,1.259,0.489,2.439,1.377,3.317c1.828,1.837,4.807,1.833,6.644,0.005l42.543-42.539
			C108.36,218.223,106.137,216.001,104.093,213.623z"/>
		<path d="M249.038,0H89.278C77.785,0,68.232,8.308,66.216,19.228c-9.529,1.762-17.033,9.266-18.795,18.795
			c-10.92,2.016-19.228,11.569-19.228,23.062v216.146c0,12.955,10.539,23.494,23.494,23.494h159.76
			c11.493,0,21.046-8.308,23.062-19.228c9.529-1.762,17.033-9.266,18.795-18.795c10.92-2.016,19.228-11.569,19.228-23.062V23.494
			C272.532,10.539,261.993,0,249.038,0z M211.448,291.328H51.687c-7.772,0-14.097-6.325-14.097-14.096V61.085
			c0-7.772,6.325-14.097,14.097-14.097h18.189h0.606h98.676v51.687c0,2.594,2.1,4.699,4.699,4.699h51.687v173.857
			C225.544,285.003,219.219,291.328,211.448,291.328z M178.556,53.632L218.9,93.977h-40.344V53.632z M234.942,271.729V98.676
			c0-0.099-0.052-0.188-0.056-0.287c-0.028-0.418-0.108-0.822-0.244-1.217c-0.052-0.15-0.089-0.291-0.155-0.437
			c-0.23-0.498-0.517-0.973-0.921-1.377L177.18,38.972c-0.404-0.404-0.874-0.691-1.372-0.916c-0.146-0.07-0.296-0.108-0.451-0.16
			c-0.39-0.132-0.78-0.211-1.189-0.235c-0.108-0.019-0.202-0.07-0.31-0.07H70.483h-0.606H57.19
			c1.941-5.469,7.166-9.398,13.293-9.398h140.965v28.193c0,2.594,2.1,4.699,4.699,4.699h28.193v197.351
			C244.339,264.563,240.411,269.788,234.942,271.729z M220.845,34.837l16.85,16.85h-16.85V34.837z M263.135,239.641
			c0,6.127-3.928,11.352-9.398,13.293V56.386c0-0.099-0.052-0.188-0.056-0.287c-0.028-0.418-0.108-0.822-0.244-1.217
			c-0.052-0.15-0.089-0.291-0.155-0.437c-0.23-0.498-0.517-0.973-0.921-1.377l-32.892-32.892c-0.404-0.404-0.874-0.691-1.372-0.916
			c-0.146-0.07-0.296-0.108-0.451-0.16c-0.39-0.132-0.78-0.211-1.189-0.235c-0.108-0.019-0.202-0.07-0.31-0.07H75.985
			c1.941-5.469,7.166-9.398,13.293-9.398h159.76c7.772,0,14.097,6.325,14.097,14.097V239.641z"/>
		<rect x="56.386" y="75.181" width="93.977" height="9.398"/>
		<path d="M145.664,230.243c33.681,0,61.085-27.404,61.085-61.085s-27.404-61.085-61.085-61.085s-61.085,27.404-61.085,61.085
			c0,11.775,3.407,22.747,9.205,32.084L50.216,244.81c-2.66,2.66-4.13,6.202-4.13,9.966c0,3.768,1.466,7.311,4.13,9.966
			c2.749,2.749,6.358,4.121,9.966,4.121c3.609,0,7.217-1.372,9.966-4.121l43.605-43.6
			C123.053,226.874,133.959,230.243,145.664,230.243z M145.664,117.471c28.498,0,51.687,23.189,51.687,51.687
			s-23.189,51.687-51.687,51.687c-12.184,0-23.377-4.262-32.22-11.338l-8.134-8.134c-7.072-8.843-11.334-20.036-11.334-32.215
			C93.977,140.66,117.165,117.471,145.664,117.471z M63.505,258.102c-1.837,1.828-4.816,1.833-6.644-0.005
			c-0.888-0.883-1.377-2.058-1.377-3.317c0-1.255,0.489-2.434,1.377-3.322l42.534-42.534c2.049,2.378,4.267,4.6,6.654,6.639
			L63.505,258.102z"/>
		<path d="M145.664,211.448c23.32,0,42.29-18.974,42.29-42.29s-18.969-42.29-42.29-42.29s-42.29,18.974-42.29,42.29
			S122.344,211.448,145.664,211.448z M145.664,136.266c18.133,0,32.892,14.754,32.892,32.892s-14.759,32.892-32.892,32.892
			s-32.892-14.754-32.892-32.892S127.531,136.266,145.664,136.266z"/>
		<rect x="56.386" y="93.977" width="18.795" height="9.398"/>
		<rect x="84.579" y="93.977" width="23.494" height="9.398"/>
		<rect x="178.556" y="230.243" width="32.892" height="9.398"/>
		<rect x="197.351" y="211.448" width="14.097" height="9.398"/>
		<rect x="98.676" y="249.038" width="56.386" height="9.398"/>
		<rect x="164.459" y="249.038" width="46.988" height="9.398"/>
		<rect x="56.386" y="112.772" width="23.494" height="9.398"/>
	</g>
	<g id="Layer_1_24_">
	</g>
</g>
<g>
</g>
<g>
</g>
<g>
</g>
<g>
</g>
<g>
</g>
<g>
</g>
<g>
</g>
<g>
</g>
<g>
</g>
<g>
</g>
<g>
</g>
<g>
</g>
<g>
</g>
<g>
</g>
<g>
</g>
</svg>
